<?xml version="1.0" encoding="UTF-8" standalone="no"?>
<!-- Generator: Adobe Illustrator 15.0.2, SVG Export Plug-In  -->

<svg
   version="1.1"
   x="0px"
   y="0px"
   width="896.698"
   height="141.55801"
   viewBox="-16.338 -23.921 896.698 141.55802"
   enable-background="new -16.338 -23.921 638 170"
   xml:space="preserve"
   id="svg31"
   xmlns="http://www.w3.org/2000/svg"
   xmlns:svg="http://www.w3.org/2000/svg">
<defs
   id="defs1" />

<rect
   x="131.32927"
   y="59.202766"
   fill="none"
   width="520.07007"
   height="47.177109"
   id="rect2"
   style="stroke-width:1.07666" />


<path
   fill="#007bc0"
   d="m 142.45334,1.977201 c 0,2.35573 -0.87533,3.27628 -3.12017,3.27628 -2.73364,0 -3.10401,-1.65698 -3.10401,-3.27628 v -9.61458 h -3.49915 v 9.61458 c 0,4.07947 2.28576,6.2414 6.60316,6.2414 4.27542,0 6.62362,-2.21899 6.62362,-6.2414 v -9.61458 h -3.50345 z"
   id="path4"
   style="stroke-width:1.07666" />
<polygon
   fill="#007bc0"
   points="150.68,30.723 150.68,21.244 156.551,30.695 156.57,30.723 159.799,30.723 159.799,16.338 156.744,16.338 156.744,25.832 150.854,16.361 150.836,16.338 147.625,16.338 147.625,30.723 "
   id="polygon4"
   transform="matrix(1.0766605,0,0,1.0766605,-8.7507087,-25.227859)" />
<rect
   x="168.69476"
   y="-7.6373973"
   fill="#007bc0"
   width="3.5013001"
   height="15.487761"
   id="rect4"
   style="stroke-width:1.07666" />
<polygon
   fill="#007bc0"
   points="184.557,16.416 184.584,16.338 181.225,16.338 178.027,26.303 174.869,16.338 171.512,16.338 176.172,30.684 176.188,30.723 179.805,30.723 "
   id="polygon5"
   transform="matrix(1.0766605,0,0,1.0766605,-8.7507087,-25.227859)" />
<polygon
   fill="#007bc0"
   points="191.107,22.031 191.107,19.094 198.641,19.094 198.641,16.338 187.852,16.338 187.852,30.723 198.803,30.723 198.803,27.969 191.107,27.969 191.107,24.584 198.021,24.584 198.021,22.031 "
   id="polygon6"
   transform="matrix(1.0766605,0,0,1.0766605,-8.7507087,-25.227859)" />
<path
   fill="#007bc0"
   d="m 222.22203,4.668851 c -0.009,-0.19164 -0.0172,-0.36391 -0.0291,-0.52541 -0.13888,-2.03381 -0.85379,-3.21921002 -2.16839,-3.61650002 1.56654,-0.67507 2.36327,-1.97674998 2.36327,-3.86305998 0,-2.49139 -1.91969,-4.30018 -4.56073,-4.30018 h -8.34412 v 15.48776 h 3.49914 v -6.00346 h 3.32043 c 1.59991,0 2.25237,0.59324 2.50215,2.27068 0.0528,0.39944 0.0861,0.82472 0.11951,1.24462 0.0689,0.87855 0.14105,1.7851 0.42098,2.45155 l 0.0172,0.0355 h 3.53253 l -0.0657,-0.0948 c -0.49742,-0.71059 -0.56094,-2.08226 -0.60724,-3.08678 z m -9.2399,-9.56182 h 3.6445 c 1.52024,0 2.26314,0.67937 2.26314,2.0715 0,1.45564 -0.72136,2.13393998 -2.26314,2.13393998 h -3.6445 z"
   id="path6"
   style="stroke-width:1.07666" />
<path
   fill="#007bc0"
   d="m 234.17727,-1.276469 -0.4748,-0.11951 c -3.56052,-0.91731 -4.20329,-1.07881 -4.20329,-2.17808 0,-1.24247 1.21986,-1.6839 2.26853,-1.6839 1.93691,0 2.88114,0.72352 2.97158,2.27068 l 0.006,0.0571 h 3.3861 v -0.0571 c 0,-3.13954 -2.32344,-5.01724 -6.21341,-5.01724 -2.8833,0 -5.80643,1.6193 -5.80643,4.71039 0,2.95650998 2.38911,3.83721998 4.62641,4.42831 0.33053,0.0861 0.6643,0.16796 0.99053,0.25194 1.89277,0.46081 3.53037,0.86025 3.53037,2.22868 0,1.72266 -2.24807,1.85078 -2.93175,1.85078 -2.0941,0 -3.34195,-1.03682 -3.34195,-2.77778 v -0.0614 h -3.39364 v 0.0614 c -0.0151,1.48902 0.45005,2.72287 1.39428,3.67572 1.18002,1.19186 3.02972,1.85508 5.20888,1.85508 3.98041,0 6.45135,-1.91322 6.45135,-4.99463 -0.001,-3.40009002 -3.24721,-4.20005002 -4.46922,-4.50044 z"
   id="path7"
   style="stroke-width:1.07666" />
<rect
   x="242.88315"
   y="-7.6373973"
   fill="#007bc0"
   width="3.5013001"
   height="15.487761"
   id="rect7"
   style="stroke-width:1.07666" />
<polygon
   fill="#007bc0"
   points="239.898,16.338 239.898,19.094 244.174,19.094 244.174,30.723 247.428,30.723 247.428,19.094 251.705,19.094 251.705,16.338 "
   id="polygon7"
   transform="matrix(1.0766605,0,0,1.0766605,-8.7507087,-25.227859)" />
<path
   fill="#007bc0"
   d="m 277.35028,7.850381 -5.77413,-15.44577 -0.0172,-0.042 h -3.5476 l -5.84627,15.40379 -0.0334,0.084 h 3.55405 l 1.20479,-3.42163 h 5.65677 l 1.16495,3.42163 z m -5.72137,-6.06482 h -3.81246 l 1.93476,-5.45221 z"
   id="path8"
   style="stroke-width:1.07666" />
<polygon
   fill="#007bc0"
   points="273.309,30.723 273.309,19.094 277.586,19.094 277.586,16.338 265.781,16.338 265.781,19.094 270.059,19.094 270.059,30.723 "
   id="polygon8"
   transform="matrix(1.0766605,0,0,1.0766605,-8.7507087,-25.227859)" />
<path
   fill="#007bc0"
   d="m 304.61241,2.340041 h 3.49484 c 3.96211,0 5.37685,-2.57645002 5.37685,-4.99032 0,-2.41172 -1.41474,-4.98817 -5.37685,-4.98817 h -6.99398 v 15.48776 h 3.49914 z m 0,-7.23301 h 2.56999 c 1.43842,0 2.90806,0.26701 2.90806,2.24376 0,1.97459998 -1.46964,2.24375998 -2.90806,2.24375998 h -2.56999 z"
   id="path9"
   style="stroke-width:1.07666" />
<path
   fill="#007bc0"
   d="m 330.45549,0.16841098 c 0,-4.88695998 -3.06417,-8.17399998 -7.61844,-8.17399998 -4.55643,0 -7.61415,3.28704 -7.61415,8.17399998 0,4.73731002 3.13093,8.05019002 7.61415,8.05019002 4.48536,-10e-4 7.61844,-3.31288 7.61844,-8.05019002 z M 322.83705,5.253481 c -3.03188,0 -4.115,-2.62598 -4.115,-5.08507002 0,-1.22200998 0.29823,-5.20887998 4.115,-5.20887998 3.81891,0 4.11284,3.98687 4.11284,5.20887998 0,2.45802002 -1.07882,5.08507002 -4.11284,5.08507002 z"
   id="path10"
   style="stroke-width:1.07666" />
<polygon
   fill="#007bc0"
   points="321.14,27.969 321.14,16.338 317.888,16.338 317.888,30.723 328.095,30.723 328.095,27.969 "
   id="polygon10"
   transform="matrix(1.0766605,0,0,1.0766605,-8.7507087,-25.227859)" />
<rect
   x="347.52487"
   y="-7.6373973"
   fill="#007bc0"
   width="3.5034533"
   height="15.487761"
   id="rect10"
   style="stroke-width:1.07666" />
<polygon
   fill="#007bc0"
   points="349.078,19.094 349.078,16.338 337.267,16.338 337.267,19.094 341.55,19.094 341.55,30.723 344.8,30.723 344.8,19.094 "
   id="polygon11"
   transform="matrix(1.0766605,0,0,1.0766605,-8.7507087,-25.227859)" />
<polygon
   fill="#007bc0"
   points="362.755,19.094 362.755,16.338 351.97,16.338 351.97,30.723 362.919,30.723 362.919,27.969 355.224,27.969 355.224,24.584 362.138,24.584 362.138,22.031 355.224,22.031 355.224,19.094 "
   id="polygon12"
   transform="matrix(1.0766605,0,0,1.0766605,-8.7507087,-25.227859)" />
<polygon
   fill="#007bc0"
   points="356.755,12.219 353.445,12.219 356.628,15.156 358.751,15.17 "
   id="polygon13"
   transform="matrix(1.0766605,0,0,1.0766605,-8.7507087,-25.227859)" />
<path
   fill="#007bc0"
   d="m 395.56653,1.867381 c -0.27778,2.14902 -1.52671,3.3861 -3.42809,3.3861 -3.03188,0 -4.11284,-2.62598 -4.11284,-5.08507002 0,-1.22200998 0.30039,-5.20887998 4.11284,-5.20887998 1.66775,0 3.08463,1.12942 3.29781,2.63889 l 0.0108,0.0463 h 3.38717 l -0.002,-0.0657 c -0.39083,-3.38717 -3.02003,-5.58571 -6.6936,-5.58571 -4.55427,0 -7.61199,3.28704 -7.61199,8.17400998 0,4.73730002 3.12878,8.05019002 7.61199,8.05019002 3.79953,0 6.47288,-2.4914 6.81957,-6.34046 l 0.009,-0.0689 h -3.39148 z"
   id="path13"
   style="stroke-width:1.07666" />
<polygon
   fill="#007bc0"
   points="384.548,30.723 384.548,21.25 390.419,30.695 390.437,30.723 393.662,30.723 393.662,16.338 390.613,16.338 390.613,25.832 384.716,16.361 384.703,16.338 381.494,16.338 381.494,30.723 "
   id="polygon14"
   transform="matrix(1.0766605,0,0,1.0766605,-8.7507087,-25.227859)" />
<rect
   x="420.05841"
   y="-7.6373973"
   fill="#007bc0"
   width="3.5034533"
   height="15.487761"
   id="rect14"
   style="stroke-width:1.07666" />
<path
   fill="#007bc0"
   d="m 438.24966,1.867381 c -0.27563,2.14902 -1.52456,3.3861 -3.42809,3.3861 -3.02972,0 -4.11069,-2.62598 -4.11069,-5.08507002 0,-1.22200998 0.29608,-5.20887998 4.11069,-5.20887998 1.67205,0 3.08894,1.12942 3.29889,2.63889 l 0.006,0.0463 h 3.39363 l -0.009,-0.0657 c -0.39083,-3.38717 -3.01358,-5.58571 -6.69145,-5.58571 -4.5532,0 -7.61199,3.28704 -7.61199,8.17400998 0,4.73730002 3.13093,8.05019002 7.61199,8.05019002 3.79738,0 6.47504,-2.4914 6.82388,-6.34046 l 0.002,-0.0689 h -3.39363 z"
   id="path14"
   style="stroke-width:1.07666" />
<path
   fill="#007bc0"
   d="m 452.26778,-7.637379 h -3.5476 l -5.85273,15.40379 -0.0291,0.084 h 3.55406 l 1.20478,-3.42163 h 5.65893 l 1.16279,3.42163 h 3.63804 l -5.77625,-15.44578 z m 0.0624,9.42294 h -3.80815 l 1.93692,-5.45221 z"
   id="path15"
   style="stroke-width:1.07666" />
<path
   fill="#007bc0"
   d="m 474.08307,-7.637379 h -6.68929 v 15.48776 h 6.68929 c 4.40569,0 7.03382,-2.92959 7.03382,-7.83055002 0,-4.79543998 -2.6292,-7.65720998 -7.03382,-7.65720998 z m -3.1923,2.96728 h 2.35143 c 3.02649,0 4.37447,1.54393 4.37447,5.01292998 0,4.10100002 -2.63674,4.54243002 -3.76616,4.54243002 h -2.95866 v -9.55536 z"
   id="path16"
   style="stroke-width:1.07666" />
<polygon
   fill="#007bc0"
   points="468.63,19.094 468.63,16.338 457.841,16.338 457.841,30.723 468.787,30.723 468.787,27.969 461.095,27.969 461.095,24.584 468.009,24.584 468.009,22.031 461.095,22.031 461.095,19.094 "
   id="polygon16"
   transform="matrix(1.0766605,0,0,1.0766605,-8.7507087,-25.227859)" />
<path
   fill="#007bc0"
   d="m 516.14389,1.867381 c -0.27778,2.14902 -1.52025,3.3861 -3.42809,3.3861 -3.03187,0 -4.11284,-2.62598 -4.11284,-5.08507002 0,-1.22200998 0.30039,-5.20887998 4.11284,-5.20887998 1.6699,0 3.08679,1.12942 3.29781,2.63889 l 0.0108,0.0463 h 3.38717 l -0.002,-0.0657 c -0.39083,-3.38717 -3.01788,-5.58571 -6.6936,-5.58571 -4.55427,0 -7.61199,3.28704 -7.61199,8.17400998 0,4.73730002 3.12878,8.05019002 7.61199,8.05019002 3.79308,0 6.47288,-2.4914 6.82172,-6.34046 l 0.006,-0.0689 h -3.39363 z"
   id="path17"
   style="stroke-width:1.07666" />
<path
   fill="#007bc0"
   d="m 529.94668,-7.637379 h -3.5476 l -5.85273,15.40379 -0.0291,0.084 h 3.55406 l 1.20478,-3.42163 h 5.65893 l 1.16279,3.42163 h 3.63804 l -5.77625,-15.44578 z m 0.0635,9.42294 h -3.80815 l 1.93691,-5.45221 z"
   id="path18"
   style="stroke-width:1.07666" />
<polygon
   fill="#007bc0"
   points="513.298,30.723 513.298,19.094 517.576,19.094 517.576,16.338 505.769,16.338 505.769,19.094 510.048,19.094 510.048,30.723 "
   id="polygon18"
   transform="matrix(1.0766605,0,0,1.0766605,-8.7507087,-25.227859)" />
<path
   fill="#007bc0"
   d="m 557.64161,-7.637379 h -3.54759 l -5.85273,15.40379 -0.0291,0.084 h 3.55406 l 1.20478,-3.42163 h 5.65893 l 1.16279,3.42163 h 3.64019 l -5.77841,-15.44578 z m 0.0635,9.42294 h -3.80815 l 1.93691,-5.45221 z"
   id="path19"
   style="stroke-width:1.07666" />
<polygon
   fill="#007bc0"
   points="536.943,27.969 536.943,16.338 533.689,16.338 533.689,30.723 543.902,30.723 543.902,27.969 "
   id="polygon19"
   transform="matrix(1.0766605,0,0,1.0766605,-8.7507087,-25.227859)" />
<path
   fill="#007bc0"
   d="m 588.09065,1.977201 c 0,2.35573 -0.87533,3.27628 -3.12016,3.27628 -2.73364,0 -3.10401,-1.65698 -3.10401,-3.27628 v -9.61458 h -3.50346 v 9.61458 c 0,4.07947 2.2836,6.2414 6.60747,6.2414 4.26896,0 6.62361,-2.21899 6.62361,-6.2414 v -9.61458 h -3.50345 z"
   id="path20"
   style="stroke-width:1.07666" />
<polygon
   fill="#007bc0"
   points="564.91,30.723 564.91,21.25 570.779,30.695 570.796,30.723 574.021,30.723 574.021,16.338 570.972,16.338 570.972,25.832 565.076,16.361 565.06,16.338 561.853,16.338 561.853,30.723 "
   id="polygon20"
   transform="matrix(1.0766605,0,0,1.0766605,-8.7507087,-25.227859)" />
<polygon
   fill="#007bc0"
   points="583.074,21.92 579.763,16.338 576.095,16.338 581.394,25.109 581.394,30.723 584.646,30.723 584.638,25.221 589.988,16.338 586.355,16.338 "
   id="polygon21"
   transform="matrix(1.0766605,0,0,1.0766605,-8.7507087,-25.227859)" />
<path
   fill="#007bc0"
   d="m 635.0535,-7.595389 -0.0151,-0.042 h -3.5476 l -5.85272,15.40379 -0.0269,0.084 h 3.55406 l 1.20047,-3.42163 h 5.66108 l 1.1628,3.42163 h 3.63803 z m 0.0485,9.38095 h -3.8103 l 1.93907,-5.45221 z"
   id="path21"
   style="stroke-width:1.07666" />
<path
   fill="#007bc0"
   d="m 142.36613,25.823081 c 0.68368,-0.29393 1.22201,-0.72998 1.59776,-1.30384 0.39944,-0.59754 0.60401,-1.32429 0.60401,-2.14901 0,-0.78273 -0.18088,-1.45565 -0.53833,-1.99613 -0.35961,-0.53833 -0.79889,-0.96684 -1.29738,-1.26615 -0.23148,-0.14535 -0.51895,-0.26056 -0.84733,-0.33269 -0.32408,-0.0689 -0.66645,-0.12597 -1.05405,-0.15935 -0.37683,-0.0355 -0.75689,-0.0635 -1.13588,-0.0689 -0.37898,-0.002 -0.73643,-0.009 -1.0702,-0.009 h -5.63524 v 15.49853 h 7.49248 c 0.75905,0 1.44488,-0.12382 2.04027,-0.37898 0.58248,-0.2584 1.08528,-0.5954 1.47826,-1.00561 0.39944,-0.41666 0.70198,-0.90008 0.91085,-1.4298 0.20026,-0.53618 0.30254,-1.09389 0.30254,-1.66129 0,-0.95715 -0.2584,-1.78295 -0.7655,-2.4494 -0.48988,-0.63846 -1.18971,-1.07235 -2.08226,-1.28876 z m -7.2104,1.17356 h 4.61349 c 0.41882,0 0.83226,0.0377 1.23816,0.10982 0.39083,0.0818 0.74182,0.21641 1.04328,0.40805 0.29609,0.18088 0.54049,0.44574 0.72352,0.76551 0.18088,0.31546 0.26701,0.71921 0.26701,1.21985 0,0.83657 -0.24655,1.50302 -0.73859,1.97891 -0.5028,0.47696 -1.19832,0.7149 -2.08226,0.7149 h -5.06569 v -5.19704 z m 6.50411,-2.44402 c -0.4985,0.39298 -1.33076,0.59539 -2.46879,0.59539 h -4.03532 v -4.7653 h 4.03532 c 0.42852,0 0.84949,0.0269 1.24893,0.0754 0.38437,0.0506 0.72998,0.1615 1.02175,0.32623 0.28855,0.16581 0.51572,0.39729 0.68368,0.70629 0.16796,0.309 0.25194,0.73213 0.25194,1.26185 0.001,0.8118 -0.23902,1.39642 -0.73751,1.80017 z"
   id="path22"
   style="stroke-width:1.07666" />
<path
   fill="#007bc0"
   d="m 152.81943,18.538391 -6.02931,15.49853 h 2.21469 l 1.72481,-4.63287 h 6.42014 l 1.66344,4.59519 0.0194,0.0377 h 2.39126 l -6.06052,-15.49853 z m 3.63804,9.02565 h -5.03878 l 2.542,-6.99183 z"
   id="path23"
   style="stroke-width:1.07666" />
<path
   fill="#007bc0"
   d="m 176.0839,33.063621 c -0.11197,-0.33699 -0.18949,-0.69445 -0.24978,-1.05728 -0.0528,-0.36607 -0.0861,-0.75043 -0.10552,-1.13588 -0.0108,-0.38221 -0.0312,-0.7655 -0.0635,-1.14449 -0.042,-0.37037 -0.10551,-0.72997 -0.18518,-1.08742 -0.0775,-0.34238 -0.20349,-0.6643 -0.37253,-0.94854 -0.17442,-0.29393 -0.39944,-0.53618 -0.68583,-0.74074 -0.25194,-0.18304 -0.57386,-0.32193 -0.955,-0.41237 0.87102,-0.27347 1.51379,-0.75043 1.92184,-1.4298 0.42313,-0.70844 0.64384,-1.54393 0.64384,-2.48386 0,-1.26184 -0.42635,-2.26852 -1.26184,-2.99204 -0.83226,-0.72782 -1.99721,-1.09388 -3.47654,-1.09388 h -7.29652 v 15.49852 h 2.17269 v -6.57301 h 4.93111 c 0.49419,0 0.88717,0.0797 1.17786,0.22718 0.29393,0.1475 0.53618,0.34022 0.71275,0.58462 0.18088,0.23795 0.31547,0.52972 0.39944,0.86241 0.0861,0.33699 0.15935,0.69445 0.21211,1.05728 0.0732,0.37683 0.1152,0.75689 0.13027,1.13588 l 0.0151,0.40805 c 0.006,0.23794 0.0151,0.46297 0.0269,0.67937 0.0151,0.34454 0.0485,0.646 0.0991,0.92486 0.0549,0.28208 0.14965,0.50926 0.30684,0.67937 l 2.45371,0.0151 -0.0775,-0.099 c -0.20887,-0.25194 -0.36929,-0.54695 -0.47373,-0.87425 z m -9.91281,-12.68091 h 5.01939 c 0.93347,0 1.62576,0.24225 2.04027,0.70845 0.42098,0.48126 0.63093,1.09927 0.63093,1.85723 0,0.55341 -0.0969,1.0013 -0.27994,1.33937 -0.18734,0.337 -0.44143,0.60939 -0.75689,0.81826 -0.31546,0.20349 -0.68798,0.33807 -1.10788,0.40806 -0.42098,0.0732 -0.87533,0.11197 -1.34583,0.11197 h -4.19897 v -5.24334 z"
   id="path24"
   style="stroke-width:1.07666" />
<path
   fill="#007bc0"
   d="m 191.47907,28.176661 c -0.042,0.62877 -0.17011,1.2177 -0.38652,1.74742 -0.20995,0.53833 -0.50495,1.00775 -0.8764,1.39427 -0.37253,0.38437 -0.81826,0.68799 -1.33937,0.91516 -0.51141,0.21211 -1.10573,0.32839 -1.7711,0.32839 -0.90655,0 -1.69251,-0.17658 -2.34282,-0.51572 -0.65138,-0.337 -1.18971,-0.79889 -1.60637,-1.36844 -0.41452,-0.57171 -0.72783,-1.25323 -0.92486,-2.02304 -0.19595,-0.77412 -0.29823,-1.60423 -0.29823,-2.47525 0,-0.79242 0.10336,-1.57515 0.29823,-2.31051 0.19811,-0.72782 0.51142,-1.39212 0.92486,-1.97029 0.41451,-0.5674 0.95284,-1.03036 1.59345,-1.37274 0.65031,-0.337 1.42981,-0.50711 2.3342,-0.50711 1.05513,0 1.98106,0.27132 2.75302,0.8075 0.76982,0.53617 1.26831,1.35228 1.49549,2.41818 l 0.0108,0.0485 h 2.16624 l -0.0118,-0.0711 c -0.1152,-0.82688 -0.36606,-1.56224 -0.73859,-2.19316 -0.37898,-0.62446 -0.85594,-1.15633 -1.41688,-1.57731 -0.56525,-0.41451 -1.21771,-0.73643 -1.94122,-0.955 -0.71921,-0.21641 -1.49333,-0.32838 -2.29652,-0.32838 -1.18648,0 -2.25022,0.22287 -3.15677,0.64815 -0.91947,0.42098 -1.69036,1.00991 -2.31051,1.74742 -0.60939,0.73428 -1.08097,1.60638 -1.39643,2.58829 -0.31762,0.98622 -0.47696,2.05212 -0.47696,3.17508 0,1.1208 0.14965,2.18669 0.44358,3.16645 0.29393,0.97546 0.74613,1.83786 1.33721,2.55923 0.58894,0.72136 1.34368,1.29522 2.23731,1.70973 0.89578,0.40806 1.95521,0.61585 3.15246,0.61585 1.97029,0 3.55405,-0.54694 4.69101,-1.63221 1.14018,-1.08097 1.82063,-2.61629 2.01874,-4.55643 l 0.0108,-0.0689 h -2.1727 z"
   id="path25"
   style="stroke-width:1.07666" />
<polygon
   fill="#007bc0"
   points="201.367,42.363 201.367,40.65 191.393,40.65 191.393,55.045 201.426,55.045 201.426,53.332 193.406,53.332 193.406,48.506 200.828,48.506 200.828,46.789 193.406,46.789 193.406,42.363 "
   id="polygon25"
   transform="matrix(1.0766605,0,0,1.0766605,-8.7507087,-25.227859)" />
<polygon
   fill="#007bc0"
   points="207.285,53.332 207.285,40.65 205.273,40.65 205.273,55.045 214.85,55.045 214.85,53.332 "
   id="polygon26"
   transform="matrix(1.0766605,0,0,1.0766605,-8.7507087,-25.227859)" />
<path
   fill="#007bc0"
   d="m 236.29506,20.647571 c -0.61585,-0.74828 -1.40073,-1.35228 -2.32558,-1.80663 -0.91947,-0.44359 -2.01013,-0.67292 -3.23214,-0.67292 -1.21985,0 -2.31051,0.22933 -3.23644,0.67292 -0.92485,0.45435 -1.70543,1.05728 -2.32343,1.80663 -0.62231,0.75474 -1.09389,1.62145 -1.40074,2.59475 -0.31331,0.96684 -0.46942,1.98967 -0.46942,3.04265 0,1.05189 0.15611,2.0801 0.46942,3.04694 0.30685,0.969 0.77843,1.84432 1.40074,2.59476 0.61154,0.74828 1.39643,1.34582 2.32343,1.79371 0.9227,0.44143 2.01013,0.65784 3.23644,0.65784 1.22201,0 2.31267,-0.21641 3.23214,-0.65784 0.92485,-0.44789 1.70973,-1.04543 2.32558,-1.79371 0.61801,-0.74613 1.08958,-1.62576 1.40289,-2.59476 0.30685,-0.96684 0.46512,-1.99612 0.46512,-3.04694 0,-1.05405 -0.15719,-2.07581 -0.46512,-3.04265 -0.31438,-0.9733 -0.78488,-1.84324 -1.40289,-2.59475 z m -5.55772,11.91325 c -0.9227,0 -1.72481,-0.18519 -2.38265,-0.54264 -0.6643,-0.35745 -1.21339,-0.84087 -1.63975,-1.44272 -0.42313,-0.58894 -0.73859,-1.264 -0.93777,-2.01228 -0.19811,-0.74397 -0.29608,-1.50733 -0.29608,-2.27714 0,-0.7612 0.0991,-1.52886 0.29608,-2.27498 0.20026,-0.74613 0.51572,-1.4255 0.93777,-2.01659 0.42636,-0.59108 0.97545,-1.0745 1.63975,-1.4298 0.66,-0.36391 1.46318,-0.54695 2.38265,-0.54695 0.91732,0 1.71835,0.18304 2.38265,0.54695 0.65784,0.3553 1.20694,0.83441 1.63653,1.4298 0.42097,0.58894 0.73643,1.27046 0.93777,2.01659 0.1981,0.74612 0.30039,1.51378 0.30039,2.27498 0,0.76981 -0.10336,1.53317 -0.30039,2.27714 -0.20241,0.75043 -0.5168,1.4298 -0.93777,2.01228 -0.42851,0.60185 -0.97546,1.08527 -1.63653,1.44272 -0.65891,0.35745 -1.46426,0.54264 -2.38265,0.54264 z"
   id="path26"
   style="stroke-width:1.07666" />
<polygon
   fill="#007bc0"
   points="242.516,40.65 242.516,52.154 235.047,40.65 232.938,40.65 232.938,55.045 234.85,55.045 234.85,43.652 242.266,55.045 244.434,55.045 244.434,40.65 "
   id="polygon27"
   transform="matrix(1.0766605,0,0,1.0766605,-8.7507087,-25.227859)" />
<path
   fill="#007bc0"
   d="m 263.47213,18.538391 -6.03468,15.49853 h 2.22115 l 1.7205,-4.63287 h 6.42443 l 1.66344,4.59519 0.0129,0.0377 h 2.39342 l -6.05622,-15.49853 z m 3.63803,9.02565 h -5.04092 l 2.53769,-6.99183 z"
   id="path27"
   style="stroke-width:1.07666" />
<polygon
   fill="#007bc0"
   points="273.113,43.424 273.113,40.67 261.309,40.67 261.309,43.424 265.586,43.424 265.586,55.053 268.842,55.053 268.842,43.424 "
   id="polygon28"
   transform="matrix(1.0766605,0,0,1.0766605,-8.7507087,-25.227859)" />
<polygon
   fill="#007bc0"
   points="286.518,43.424 286.518,40.67 275.73,40.67 275.73,55.053 286.676,55.053 286.676,52.299 278.98,52.299 278.98,48.918 285.895,48.918 285.895,46.361 278.98,46.361 278.98,43.424 "
   id="polygon29"
   transform="matrix(1.0766605,0,0,1.0766605,-8.7507087,-25.227859)" />
<path
   fill="#007bc0"
   d="m 313.54762,28.064691 c -0.27993,2.15116 -1.5224,3.38609 -3.42809,3.38609 -3.03403,0 -4.115,-2.6249 -4.115,-5.08291 0,-1.22201 0.30039,-5.21319 4.115,-5.21319 1.66775,0 3.08463,1.13372 3.29566,2.64105 l 0.009,0.0485 h 3.38933 l -0.004,-0.0657 c -0.38867,-3.38933 -3.01572,-5.58895 -6.68929,-5.58895 -4.55643,0 -7.61199,3.28705 -7.61199,8.17831 0,4.73731 3.12662,8.04804 7.61199,8.04804 3.79092,0 6.47073,-2.49354 6.81957,-6.3383 l 0.006,-0.0689 h -3.39579 z"
   id="path29"
   style="stroke-width:1.07666" />
<polygon
   fill="#007bc0"
   points="308.048,55.053 308.048,48.898 313.712,48.898 313.712,55.053 316.96,55.053 316.96,40.67 313.712,40.67 313.712,46.145 308.048,46.145 308.048,40.67 304.792,40.67 304.792,55.053 "
   id="polygon30"
   transform="matrix(1.0766605,0,0,1.0766605,-8.7507087,-25.227859)" />
<polygon
   fill="#007bc0"
   points="130.143,67.498 130.143,65.969 604.441,65.969 604.441,67.498 "
   id="polygon31"
   transform="matrix(1.0766605,0,0,1.0766605,-8.7507087,-25.227859)" />
<rect
   x="131.32927"
   y="59.202766"
   fill="none"
   width="520.07007"
   height="47.177109"
   id="rect2-6"
   style="stroke-width:1.07666" /><text
   font-family="HelveticaNeueLTStd-Bd"
   font-size="35.1808px"
   id="text2-0"
   x="128.70982"
   y="99.419106"
   style="font-style:normal;font-variant:normal;font-weight:bold;font-stretch:normal;font-size:35.1808px;font-family:Calibri;-inkscape-font-specification:'Calibri, Bold';font-variant-ligatures:normal;font-variant-caps:normal;font-variant-numeric:normal;font-variant-east-asian:normal;stroke-width:1.59913">Facultat d’Informàtica de Barcelona</text><g
   id="g4-2"
   transform="matrix(1.2068046,0,0,1.2068046,-14.338367,-16.954459)">
	<g
   id="g3-4">
		<path
   fill="#007bc0"
   d="m 56.523,79.877 h -2.051 v 4.275 h 2.109 c 1.367,0 1.922,-1.072 1.895,-2.207 -0.033,-1.105 -0.474,-2.068 -1.953,-2.068 z M 55.223,0 C 24.723,0 0,24.727 0,55.225 c 0,30.504 24.723,55.225 55.223,55.225 30.506,0 55.232,-24.721 55.232,-55.225 C 110.455,24.727 85.729,0 55.223,0 Z m 0.222,15.592 c 4.355,0 7.883,3.539 7.883,7.885 0,4.348 -3.527,7.883 -7.883,7.883 -4.352,0 -7.879,-3.535 -7.879,-7.883 0,-4.346 3.528,-7.885 7.879,-7.885 z m 0,18.685 c 4.355,0 7.883,3.525 7.883,7.881 0,4.346 -3.527,7.881 -7.883,7.881 -4.352,0 -7.879,-3.535 -7.879,-7.881 0,-4.355 3.528,-7.881 7.879,-7.881 z M 36.289,15.592 c 4.352,0 7.887,3.539 7.887,7.885 0,4.348 -3.535,7.883 -7.887,7.883 -4.359,0 -7.885,-3.535 -7.885,-7.883 0,-4.346 3.526,-7.885 7.885,-7.885 z m 0,18.685 c 4.352,0 7.887,3.525 7.887,7.881 0,4.346 -3.535,7.881 -7.887,7.881 -4.359,0 -7.885,-3.535 -7.885,-7.881 0,-4.355 3.526,-7.881 7.885,-7.881 z m 0,19.174 c 4.352,0 7.887,3.527 7.887,7.887 0,4.352 -3.535,7.875 -7.887,7.875 -4.359,0 -7.885,-3.523 -7.885,-7.875 0,-4.359 3.526,-7.887 7.885,-7.887 z m 9.291,33.531 c 0,1.936 -0.064,4.326 -2.605,6.117 -1.67,1.172 -3.631,1.422 -5.408,1.422 -1.777,0 -3.732,-0.25 -5.404,-1.422 -2.547,-1.791 -2.617,-4.182 -2.617,-6.117 v -11.09 h 5.313 v 11.066 c 0.014,1.049 0.111,1.875 0.93,2.545 0.566,0.469 1.049,0.623 1.785,0.625 0.734,-0.002 1.211,-0.156 1.771,-0.625 0.809,-0.67 0.91,-1.496 0.938,-2.545 V 75.893 h 5.299 v 11.089 z m 9.865,-33.531 c 4.355,0 7.883,3.527 7.883,7.887 0,4.352 -3.527,7.875 -7.883,7.875 -4.352,0 -7.879,-3.523 -7.879,-7.875 0,-4.359 3.528,-7.887 7.879,-7.887 z m 5.625,33.75 c -1.016,0.719 -2.168,0.994 -5.117,0.994 l -1.539,-0.037 v 5.973 H 49.791 V 75.893 h 7.639 c 3.723,0 6.023,2.246 6.023,6.281 0,2.156 -0.842,3.959 -2.383,5.027 z m 19.043,-5.789 c -1.807,-1.518 -2.521,-1.406 -3.945,-1.406 -2.764,0 -4.688,2.098 -4.688,5.092 0,3.002 1.951,5.092 4.717,5.092 1.494,0 2.24,-0.203 3.916,-1.447 v 4.727 c -1.74,0.848 -2.73,1.096 -4.41,1.096 -5.508,0 -9.387,-3.914 -9.387,-9.467 0,-5.508 3.965,-9.584 9.334,-9.584 1.643,0 2.715,0.268 4.463,1.121 z M 74.166,69.213 c -4.367,0 -7.889,-3.523 -7.889,-7.875 0,-4.359 3.521,-7.887 7.889,-7.887 4.346,0 7.881,3.527 7.881,7.887 0,4.351 -3.535,7.875 -7.881,7.875 z m 0,-19.174 c -4.367,0 -7.889,-3.535 -7.889,-7.881 0,-4.355 3.521,-7.881 7.889,-7.881 4.346,0 7.881,3.525 7.881,7.881 0,4.346 -3.535,7.881 -7.881,7.881 z m 0,-18.68 c -4.367,0 -7.889,-3.535 -7.889,-7.883 0,-4.346 3.521,-7.885 7.889,-7.885 4.346,0 7.881,3.539 7.881,7.885 0,4.348 -3.535,7.883 -7.881,7.883 z"
   id="path2-8" />
	</g>
</g><path
   fill="#007bc0"
   d="m 142.45334,1.977201 c 0,2.35573 -0.87533,3.27628 -3.12017,3.27628 -2.73364,0 -3.10401,-1.65698 -3.10401,-3.27628 v -9.61458 h -3.49915 v 9.61458 c 0,4.07947 2.28576,6.2414 6.60316,6.2414 4.27542,0 6.62362,-2.21899 6.62362,-6.2414 v -9.61458 h -3.50345 z"
   id="path4-6"
   style="stroke-width:1.07666" /><polygon
   fill="#007bc0"
   points="156.744,16.338 156.744,25.832 150.854,16.361 150.836,16.338 147.625,16.338 147.625,30.723 150.68,30.723 150.68,21.244 156.551,30.695 156.57,30.723 159.799,30.723 159.799,16.338 "
   id="polygon4-5"
   transform="matrix(1.0766605,0,0,1.0766605,-8.7507087,-25.227859)" /><rect
   x="168.69476"
   y="-7.6373973"
   fill="#007bc0"
   width="3.5013001"
   height="15.487761"
   id="rect4-0"
   style="stroke-width:1.07666" /><polygon
   fill="#007bc0"
   points="176.172,30.684 176.188,30.723 179.805,30.723 184.557,16.416 184.584,16.338 181.225,16.338 178.027,26.303 174.869,16.338 171.512,16.338 "
   id="polygon5-9"
   transform="matrix(1.0766605,0,0,1.0766605,-8.7507087,-25.227859)" /><polygon
   fill="#007bc0"
   points="198.803,30.723 198.803,27.969 191.107,27.969 191.107,24.584 198.021,24.584 198.021,22.031 191.107,22.031 191.107,19.094 198.641,19.094 198.641,16.338 187.852,16.338 187.852,30.723 "
   id="polygon6-0"
   transform="matrix(1.0766605,0,0,1.0766605,-8.7507087,-25.227859)" /><path
   fill="#007bc0"
   d="m 222.22203,4.668851 c -0.009,-0.19164 -0.0172,-0.36391 -0.0291,-0.52541 -0.13888,-2.03381 -0.85379,-3.21921002 -2.16839,-3.61650002 1.56654,-0.67507 2.36327,-1.97674998 2.36327,-3.86305998 0,-2.49139 -1.91969,-4.30018 -4.56073,-4.30018 h -8.34412 v 15.48776 h 3.49914 v -6.00346 h 3.32043 c 1.59991,0 2.25237,0.59324 2.50215,2.27068 0.0528,0.39944 0.0861,0.82472 0.11951,1.24462 0.0689,0.87855 0.14105,1.7851 0.42098,2.45155 l 0.0172,0.0355 h 3.53253 l -0.0657,-0.0948 c -0.49742,-0.71059 -0.56094,-2.08226 -0.60724,-3.08678 z m -9.2399,-9.56182 h 3.6445 c 1.52024,0 2.26314,0.67937 2.26314,2.0715 0,1.45564 -0.72136,2.13393998 -2.26314,2.13393998 h -3.6445 z"
   id="path6-0"
   style="stroke-width:1.07666" /><path
   fill="#007bc0"
   d="m 234.17727,-1.276469 -0.4748,-0.11951 c -3.56052,-0.91731 -4.20329,-1.07881 -4.20329,-2.17808 0,-1.24247 1.21986,-1.6839 2.26853,-1.6839 1.93691,0 2.88114,0.72352 2.97158,2.27068 l 0.006,0.0571 h 3.3861 v -0.0571 c 0,-3.13954 -2.32344,-5.01724 -6.21341,-5.01724 -2.8833,0 -5.80643,1.6193 -5.80643,4.71039 0,2.95650998 2.38911,3.83721998 4.62641,4.42831 0.33053,0.0861 0.6643,0.16796 0.99053,0.25194 1.89277,0.46081 3.53037,0.86025 3.53037,2.22868 0,1.72266 -2.24807,1.85078 -2.93175,1.85078 -2.0941,0 -3.34195,-1.03682 -3.34195,-2.77778 v -0.0614 h -3.39364 v 0.0614 c -0.0151,1.48902 0.45005,2.72287 1.39428,3.67572 1.18002,1.19186 3.02972,1.85508 5.20888,1.85508 3.98041,0 6.45135,-1.91322 6.45135,-4.99463 -0.001,-3.40009002 -3.24721,-4.20005002 -4.46922,-4.50044 z"
   id="path7-6"
   style="stroke-width:1.07666" /><rect
   x="242.88315"
   y="-7.6373973"
   fill="#007bc0"
   width="3.5013001"
   height="15.487761"
   id="rect7-1"
   style="stroke-width:1.07666" /><polygon
   fill="#007bc0"
   points="251.705,19.094 251.705,16.338 239.898,16.338 239.898,19.094 244.174,19.094 244.174,30.723 247.428,30.723 247.428,19.094 "
   id="polygon7-3"
   transform="matrix(1.0766605,0,0,1.0766605,-8.7507087,-25.227859)" /><path
   fill="#007bc0"
   d="m 277.35028,7.850381 -5.77413,-15.44577 -0.0172,-0.042 h -3.5476 l -5.84627,15.40379 -0.0334,0.084 h 3.55405 l 1.20479,-3.42163 h 5.65677 l 1.16495,3.42163 z m -5.72137,-6.06482 h -3.81246 l 1.93476,-5.45221 z"
   id="path8-8"
   style="stroke-width:1.07666" /><polygon
   fill="#007bc0"
   points="270.059,19.094 270.059,30.723 273.309,30.723 273.309,19.094 277.586,19.094 277.586,16.338 265.781,16.338 265.781,19.094 "
   id="polygon8-9"
   transform="matrix(1.0766605,0,0,1.0766605,-8.7507087,-25.227859)" /><path
   fill="#007bc0"
   d="m 304.61241,2.340041 h 3.49484 c 3.96211,0 5.37685,-2.57645002 5.37685,-4.99032 0,-2.41172 -1.41474,-4.98817 -5.37685,-4.98817 h -6.99398 v 15.48776 h 3.49914 z m 0,-7.23301 h 2.56999 c 1.43842,0 2.90806,0.26701 2.90806,2.24376 0,1.97459998 -1.46964,2.24375998 -2.90806,2.24375998 h -2.56999 z"
   id="path9-3"
   style="stroke-width:1.07666" /><path
   fill="#007bc0"
   d="m 330.45549,0.16841098 c 0,-4.88695998 -3.06417,-8.17399998 -7.61844,-8.17399998 -4.55643,0 -7.61415,3.28704 -7.61415,8.17399998 0,4.73731002 3.13093,8.05019002 7.61415,8.05019002 4.48536,-10e-4 7.61844,-3.31288 7.61844,-8.05019002 z M 322.83705,5.253481 c -3.03188,0 -4.115,-2.62598 -4.115,-5.08507002 0,-1.22200998 0.29823,-5.20887998 4.115,-5.20887998 3.81891,0 4.11284,3.98687 4.11284,5.20887998 0,2.45802002 -1.07882,5.08507002 -4.11284,5.08507002 z"
   id="path10-4"
   style="stroke-width:1.07666" /><polygon
   fill="#007bc0"
   points="321.14,27.969 321.14,16.338 317.888,16.338 317.888,30.723 328.095,30.723 328.095,27.969 "
   id="polygon10-4"
   transform="matrix(1.0766605,0,0,1.0766605,-8.7507087,-25.227859)" /><rect
   x="347.52487"
   y="-7.6373973"
   fill="#007bc0"
   width="3.5034533"
   height="15.487761"
   id="rect10-6"
   style="stroke-width:1.07666" /><polygon
   fill="#007bc0"
   points="344.8,30.723 344.8,19.094 349.078,19.094 349.078,16.338 337.267,16.338 337.267,19.094 341.55,19.094 341.55,30.723 "
   id="polygon11-0"
   transform="matrix(1.0766605,0,0,1.0766605,-8.7507087,-25.227859)" /><polygon
   fill="#007bc0"
   points="355.224,27.969 355.224,24.584 362.138,24.584 362.138,22.031 355.224,22.031 355.224,19.094 362.755,19.094 362.755,16.338 351.97,16.338 351.97,30.723 362.919,30.723 362.919,27.969 "
   id="polygon12-6"
   transform="matrix(1.0766605,0,0,1.0766605,-8.7507087,-25.227859)" /><polygon
   fill="#007bc0"
   points="356.628,15.156 358.751,15.17 356.755,12.219 353.445,12.219 "
   id="polygon13-6"
   transform="matrix(1.0766605,0,0,1.0766605,-8.7507087,-25.227859)" /><path
   fill="#007bc0"
   d="m 395.56653,1.867381 c -0.27778,2.14902 -1.52671,3.3861 -3.42809,3.3861 -3.03188,0 -4.11284,-2.62598 -4.11284,-5.08507002 0,-1.22200998 0.30039,-5.20887998 4.11284,-5.20887998 1.66775,0 3.08463,1.12942 3.29781,2.63889 l 0.0108,0.0463 h 3.38717 l -0.002,-0.0657 c -0.39083,-3.38717 -3.02003,-5.58571 -6.6936,-5.58571 -4.55427,0 -7.61199,3.28704 -7.61199,8.17400998 0,4.73730002 3.12878,8.05019002 7.61199,8.05019002 3.79953,0 6.47288,-2.4914 6.81957,-6.34046 l 0.009,-0.0689 h -3.39148 z"
   id="path13-1"
   style="stroke-width:1.07666" /><polygon
   fill="#007bc0"
   points="390.613,16.338 390.613,25.832 384.716,16.361 384.703,16.338 381.494,16.338 381.494,30.723 384.548,30.723 384.548,21.25 390.419,30.695 390.437,30.723 393.662,30.723 393.662,16.338 "
   id="polygon14-8"
   transform="matrix(1.0766605,0,0,1.0766605,-8.7507087,-25.227859)" /><rect
   x="420.05841"
   y="-7.6373973"
   fill="#007bc0"
   width="3.5034533"
   height="15.487761"
   id="rect14-4"
   style="stroke-width:1.07666" /><path
   fill="#007bc0"
   d="m 438.24966,1.867381 c -0.27563,2.14902 -1.52456,3.3861 -3.42809,3.3861 -3.02972,0 -4.11069,-2.62598 -4.11069,-5.08507002 0,-1.22200998 0.29608,-5.20887998 4.11069,-5.20887998 1.67205,0 3.08894,1.12942 3.29889,2.63889 l 0.006,0.0463 h 3.39363 l -0.009,-0.0657 c -0.39083,-3.38717 -3.01358,-5.58571 -6.69145,-5.58571 -4.5532,0 -7.61199,3.28704 -7.61199,8.17400998 0,4.73730002 3.13093,8.05019002 7.61199,8.05019002 3.79738,0 6.47504,-2.4914 6.82388,-6.34046 l 0.002,-0.0689 h -3.39363 z"
   id="path14-9"
   style="stroke-width:1.07666" /><path
   fill="#007bc0"
   d="m 452.26778,-7.637379 h -3.5476 l -5.85273,15.40379 -0.0291,0.084 h 3.55406 l 1.20478,-3.42163 h 5.65893 l 1.16279,3.42163 h 3.63804 l -5.77625,-15.44578 z m 0.0624,9.42294 h -3.80815 l 1.93692,-5.45221 z"
   id="path15-6"
   style="stroke-width:1.07666" /><path
   fill="#007bc0"
   d="m 474.08307,-7.637379 h -6.68929 v 15.48776 h 6.68929 c 4.40569,0 7.03382,-2.92959 7.03382,-7.83055002 0,-4.79543998 -2.6292,-7.65720998 -7.03382,-7.65720998 z m -3.1923,2.96728 h 2.35143 c 3.02649,0 4.37447,1.54393 4.37447,5.01292998 0,4.10100002 -2.63674,4.54243002 -3.76616,4.54243002 h -2.95866 v -9.55536 z"
   id="path16-3"
   style="stroke-width:1.07666" /><polygon
   fill="#007bc0"
   points="461.095,27.969 461.095,24.584 468.009,24.584 468.009,22.031 461.095,22.031 461.095,19.094 468.63,19.094 468.63,16.338 457.841,16.338 457.841,30.723 468.787,30.723 468.787,27.969 "
   id="polygon16-7"
   transform="matrix(1.0766605,0,0,1.0766605,-8.7507087,-25.227859)" /><path
   fill="#007bc0"
   d="m 516.14389,1.867381 c -0.27778,2.14902 -1.52025,3.3861 -3.42809,3.3861 -3.03187,0 -4.11284,-2.62598 -4.11284,-5.08507002 0,-1.22200998 0.30039,-5.20887998 4.11284,-5.20887998 1.6699,0 3.08679,1.12942 3.29781,2.63889 l 0.0108,0.0463 h 3.38717 l -0.002,-0.0657 c -0.39083,-3.38717 -3.01788,-5.58571 -6.6936,-5.58571 -4.55427,0 -7.61199,3.28704 -7.61199,8.17400998 0,4.73730002 3.12878,8.05019002 7.61199,8.05019002 3.79308,0 6.47288,-2.4914 6.82172,-6.34046 l 0.006,-0.0689 h -3.39363 z"
   id="path17-8"
   style="stroke-width:1.07666" /><path
   fill="#007bc0"
   d="m 529.94668,-7.637379 h -3.5476 l -5.85273,15.40379 -0.0291,0.084 h 3.55406 l 1.20478,-3.42163 h 5.65893 l 1.16279,3.42163 h 3.63804 l -5.77625,-15.44578 z m 0.0635,9.42294 h -3.80815 l 1.93691,-5.45221 z"
   id="path18-8"
   style="stroke-width:1.07666" /><polygon
   fill="#007bc0"
   points="510.048,19.094 510.048,30.723 513.298,30.723 513.298,19.094 517.576,19.094 517.576,16.338 505.769,16.338 505.769,19.094 "
   id="polygon18-2"
   transform="matrix(1.0766605,0,0,1.0766605,-8.7507087,-25.227859)" /><path
   fill="#007bc0"
   d="m 557.64161,-7.637379 h -3.54759 l -5.85273,15.40379 -0.0291,0.084 h 3.55406 l 1.20478,-3.42163 h 5.65893 l 1.16279,3.42163 h 3.64019 l -5.77841,-15.44578 z m 0.0635,9.42294 h -3.80815 l 1.93691,-5.45221 z"
   id="path19-9"
   style="stroke-width:1.07666" /><polygon
   fill="#007bc0"
   points="536.943,27.969 536.943,16.338 533.689,16.338 533.689,30.723 543.902,30.723 543.902,27.969 "
   id="polygon19-1"
   transform="matrix(1.0766605,0,0,1.0766605,-8.7507087,-25.227859)" /><path
   fill="#007bc0"
   d="m 588.09065,1.977201 c 0,2.35573 -0.87533,3.27628 -3.12016,3.27628 -2.73364,0 -3.10401,-1.65698 -3.10401,-3.27628 v -9.61458 h -3.50346 v 9.61458 c 0,4.07947 2.2836,6.2414 6.60747,6.2414 4.26896,0 6.62361,-2.21899 6.62361,-6.2414 v -9.61458 h -3.50345 z"
   id="path20-3"
   style="stroke-width:1.07666" /><polygon
   fill="#007bc0"
   points="570.972,16.338 570.972,25.832 565.076,16.361 565.06,16.338 561.853,16.338 561.853,30.723 564.91,30.723 564.91,21.25 570.779,30.695 570.796,30.723 574.021,30.723 574.021,16.338 "
   id="polygon20-5"
   transform="matrix(1.0766605,0,0,1.0766605,-8.7507087,-25.227859)" /><polygon
   fill="#007bc0"
   points="584.638,25.221 589.988,16.338 586.355,16.338 583.074,21.92 579.763,16.338 576.095,16.338 581.394,25.109 581.394,30.723 584.646,30.723 "
   id="polygon21-9"
   transform="matrix(1.0766605,0,0,1.0766605,-8.7507087,-25.227859)" /><path
   fill="#007bc0"
   d="m 635.0535,-7.595389 -0.0151,-0.042 h -3.5476 l -5.85272,15.40379 -0.0269,0.084 h 3.55406 l 1.20047,-3.42163 h 5.66108 l 1.1628,3.42163 h 3.63803 z m 0.0485,9.38095 h -3.8103 l 1.93907,-5.45221 z"
   id="path21-8"
   style="stroke-width:1.07666" /><path
   fill="#007bc0"
   d="m 142.36613,25.823081 c 0.68368,-0.29393 1.22201,-0.72998 1.59776,-1.30384 0.39944,-0.59754 0.60401,-1.32429 0.60401,-2.14901 0,-0.78273 -0.18088,-1.45565 -0.53833,-1.99613 -0.35961,-0.53833 -0.79889,-0.96684 -1.29738,-1.26615 -0.23148,-0.14535 -0.51895,-0.26056 -0.84733,-0.33269 -0.32408,-0.0689 -0.66645,-0.12597 -1.05405,-0.15935 -0.37683,-0.0355 -0.75689,-0.0635 -1.13588,-0.0689 -0.37898,-0.002 -0.73643,-0.009 -1.0702,-0.009 h -5.63524 v 15.49853 h 7.49248 c 0.75905,0 1.44488,-0.12382 2.04027,-0.37898 0.58248,-0.2584 1.08528,-0.5954 1.47826,-1.00561 0.39944,-0.41666 0.70198,-0.90008 0.91085,-1.4298 0.20026,-0.53618 0.30254,-1.09389 0.30254,-1.66129 0,-0.95715 -0.2584,-1.78295 -0.7655,-2.4494 -0.48988,-0.63846 -1.18971,-1.07235 -2.08226,-1.28876 z m -7.2104,1.17356 h 4.61349 c 0.41882,0 0.83226,0.0377 1.23816,0.10982 0.39083,0.0818 0.74182,0.21641 1.04328,0.40805 0.29609,0.18088 0.54049,0.44574 0.72352,0.76551 0.18088,0.31546 0.26701,0.71921 0.26701,1.21985 0,0.83657 -0.24655,1.50302 -0.73859,1.97891 -0.5028,0.47696 -1.19832,0.7149 -2.08226,0.7149 h -5.06569 v -5.19704 z m 6.50411,-2.44402 c -0.4985,0.39298 -1.33076,0.59539 -2.46879,0.59539 h -4.03532 v -4.7653 h 4.03532 c 0.42852,0 0.84949,0.0269 1.24893,0.0754 0.38437,0.0506 0.72998,0.1615 1.02175,0.32623 0.28855,0.16581 0.51572,0.39729 0.68368,0.70629 0.16796,0.309 0.25194,0.73213 0.25194,1.26185 0.001,0.8118 -0.23902,1.39642 -0.73751,1.80017 z"
   id="path22-4"
   style="stroke-width:1.07666" /><path
   fill="#007bc0"
   d="m 152.81943,18.538391 -6.02931,15.49853 h 2.21469 l 1.72481,-4.63287 h 6.42014 l 1.66344,4.59519 0.0194,0.0377 h 2.39126 l -6.06052,-15.49853 z m 3.63804,9.02565 h -5.03878 l 2.542,-6.99183 z"
   id="path23-0"
   style="stroke-width:1.07666" /><path
   fill="#007bc0"
   d="m 176.0839,33.063621 c -0.11197,-0.33699 -0.18949,-0.69445 -0.24978,-1.05728 -0.0528,-0.36607 -0.0861,-0.75043 -0.10552,-1.13588 -0.0108,-0.38221 -0.0312,-0.7655 -0.0635,-1.14449 -0.042,-0.37037 -0.10551,-0.72997 -0.18518,-1.08742 -0.0775,-0.34238 -0.20349,-0.6643 -0.37253,-0.94854 -0.17442,-0.29393 -0.39944,-0.53618 -0.68583,-0.74074 -0.25194,-0.18304 -0.57386,-0.32193 -0.955,-0.41237 0.87102,-0.27347 1.51379,-0.75043 1.92184,-1.4298 0.42313,-0.70844 0.64384,-1.54393 0.64384,-2.48386 0,-1.26184 -0.42635,-2.26852 -1.26184,-2.99204 -0.83226,-0.72782 -1.99721,-1.09388 -3.47654,-1.09388 h -7.29652 v 15.49852 h 2.17269 v -6.57301 h 4.93111 c 0.49419,0 0.88717,0.0797 1.17786,0.22718 0.29393,0.1475 0.53618,0.34022 0.71275,0.58462 0.18088,0.23795 0.31547,0.52972 0.39944,0.86241 0.0861,0.33699 0.15935,0.69445 0.21211,1.05728 0.0732,0.37683 0.1152,0.75689 0.13027,1.13588 l 0.0151,0.40805 c 0.006,0.23794 0.0151,0.46297 0.0269,0.67937 0.0151,0.34454 0.0485,0.646 0.0991,0.92486 0.0549,0.28208 0.14965,0.50926 0.30684,0.67937 l 2.45371,0.0151 -0.0775,-0.099 c -0.20887,-0.25194 -0.36929,-0.54695 -0.47373,-0.87425 z m -9.91281,-12.68091 h 5.01939 c 0.93347,0 1.62576,0.24225 2.04027,0.70845 0.42098,0.48126 0.63093,1.09927 0.63093,1.85723 0,0.55341 -0.0969,1.0013 -0.27994,1.33937 -0.18734,0.337 -0.44143,0.60939 -0.75689,0.81826 -0.31546,0.20349 -0.68798,0.33807 -1.10788,0.40806 -0.42098,0.0732 -0.87533,0.11197 -1.34583,0.11197 h -4.19897 v -5.24334 z"
   id="path24-7"
   style="stroke-width:1.07666" /><path
   fill="#007bc0"
   d="m 191.47907,28.176661 c -0.042,0.62877 -0.17011,1.2177 -0.38652,1.74742 -0.20995,0.53833 -0.50495,1.00775 -0.8764,1.39427 -0.37253,0.38437 -0.81826,0.68799 -1.33937,0.91516 -0.51141,0.21211 -1.10573,0.32839 -1.7711,0.32839 -0.90655,0 -1.69251,-0.17658 -2.34282,-0.51572 -0.65138,-0.337 -1.18971,-0.79889 -1.60637,-1.36844 -0.41452,-0.57171 -0.72783,-1.25323 -0.92486,-2.02304 -0.19595,-0.77412 -0.29823,-1.60423 -0.29823,-2.47525 0,-0.79242 0.10336,-1.57515 0.29823,-2.31051 0.19811,-0.72782 0.51142,-1.39212 0.92486,-1.97029 0.41451,-0.5674 0.95284,-1.03036 1.59345,-1.37274 0.65031,-0.337 1.42981,-0.50711 2.3342,-0.50711 1.05513,0 1.98106,0.27132 2.75302,0.8075 0.76982,0.53617 1.26831,1.35228 1.49549,2.41818 l 0.0108,0.0485 h 2.16624 l -0.0118,-0.0711 c -0.1152,-0.82688 -0.36606,-1.56224 -0.73859,-2.19316 -0.37898,-0.62446 -0.85594,-1.15633 -1.41688,-1.57731 -0.56525,-0.41451 -1.21771,-0.73643 -1.94122,-0.955 -0.71921,-0.21641 -1.49333,-0.32838 -2.29652,-0.32838 -1.18648,0 -2.25022,0.22287 -3.15677,0.64815 -0.91947,0.42098 -1.69036,1.00991 -2.31051,1.74742 -0.60939,0.73428 -1.08097,1.60638 -1.39643,2.58829 -0.31762,0.98622 -0.47696,2.05212 -0.47696,3.17508 0,1.1208 0.14965,2.18669 0.44358,3.16645 0.29393,0.97546 0.74613,1.83786 1.33721,2.55923 0.58894,0.72136 1.34368,1.29522 2.23731,1.70973 0.89578,0.40806 1.95521,0.61585 3.15246,0.61585 1.97029,0 3.55405,-0.54694 4.69101,-1.63221 1.14018,-1.08097 1.82063,-2.61629 2.01874,-4.55643 l 0.0108,-0.0689 h -2.1727 z"
   id="path25-6"
   style="stroke-width:1.07666" /><polygon
   fill="#007bc0"
   points="193.406,53.332 193.406,48.506 200.828,48.506 200.828,46.789 193.406,46.789 193.406,42.363 201.367,42.363 201.367,40.65 191.393,40.65 191.393,55.045 201.426,55.045 201.426,53.332 "
   id="polygon25-3"
   transform="matrix(1.0766605,0,0,1.0766605,-8.7507087,-25.227859)" /><polygon
   fill="#007bc0"
   points="207.285,53.332 207.285,40.65 205.273,40.65 205.273,55.045 214.85,55.045 214.85,53.332 "
   id="polygon26-6"
   transform="matrix(1.0766605,0,0,1.0766605,-8.7507087,-25.227859)" /><path
   fill="#007bc0"
   d="m 236.29506,20.647571 c -0.61585,-0.74828 -1.40073,-1.35228 -2.32558,-1.80663 -0.91947,-0.44359 -2.01013,-0.67292 -3.23214,-0.67292 -1.21985,0 -2.31051,0.22933 -3.23644,0.67292 -0.92485,0.45435 -1.70543,1.05728 -2.32343,1.80663 -0.62231,0.75474 -1.09389,1.62145 -1.40074,2.59475 -0.31331,0.96684 -0.46942,1.98967 -0.46942,3.04265 0,1.05189 0.15611,2.0801 0.46942,3.04694 0.30685,0.969 0.77843,1.84432 1.40074,2.59476 0.61154,0.74828 1.39643,1.34582 2.32343,1.79371 0.9227,0.44143 2.01013,0.65784 3.23644,0.65784 1.22201,0 2.31267,-0.21641 3.23214,-0.65784 0.92485,-0.44789 1.70973,-1.04543 2.32558,-1.79371 0.61801,-0.74613 1.08958,-1.62576 1.40289,-2.59476 0.30685,-0.96684 0.46512,-1.99612 0.46512,-3.04694 0,-1.05405 -0.15719,-2.07581 -0.46512,-3.04265 -0.31438,-0.9733 -0.78488,-1.84324 -1.40289,-2.59475 z m -5.55772,11.91325 c -0.9227,0 -1.72481,-0.18519 -2.38265,-0.54264 -0.6643,-0.35745 -1.21339,-0.84087 -1.63975,-1.44272 -0.42313,-0.58894 -0.73859,-1.264 -0.93777,-2.01228 -0.19811,-0.74397 -0.29608,-1.50733 -0.29608,-2.27714 0,-0.7612 0.0991,-1.52886 0.29608,-2.27498 0.20026,-0.74613 0.51572,-1.4255 0.93777,-2.01659 0.42636,-0.59108 0.97545,-1.0745 1.63975,-1.4298 0.66,-0.36391 1.46318,-0.54695 2.38265,-0.54695 0.91732,0 1.71835,0.18304 2.38265,0.54695 0.65784,0.3553 1.20694,0.83441 1.63653,1.4298 0.42097,0.58894 0.73643,1.27046 0.93777,2.01659 0.1981,0.74612 0.30039,1.51378 0.30039,2.27498 0,0.76981 -0.10336,1.53317 -0.30039,2.27714 -0.20241,0.75043 -0.5168,1.4298 -0.93777,2.01228 -0.42851,0.60185 -0.97546,1.08527 -1.63653,1.44272 -0.65891,0.35745 -1.46426,0.54264 -2.38265,0.54264 z"
   id="path26-1"
   style="stroke-width:1.07666" /><polygon
   fill="#007bc0"
   points="234.85,43.652 242.266,55.045 244.434,55.045 244.434,40.65 242.516,40.65 242.516,52.154 235.047,40.65 232.938,40.65 232.938,55.045 234.85,55.045 "
   id="polygon27-5"
   transform="matrix(1.0766605,0,0,1.0766605,-8.7507087,-25.227859)" /><path
   fill="#007bc0"
   d="m 263.47213,18.538391 -6.03468,15.49853 h 2.22115 l 1.7205,-4.63287 h 6.42443 l 1.66344,4.59519 0.0129,0.0377 h 2.39342 l -6.05622,-15.49853 z m 3.63803,9.02565 h -5.04092 l 2.53769,-6.99183 z"
   id="path27-4"
   style="stroke-width:1.07666" /><polygon
   fill="#007bc0"
   points="268.842,55.053 268.842,43.424 273.113,43.424 273.113,40.67 261.309,40.67 261.309,43.424 265.586,43.424 265.586,55.053 "
   id="polygon28-2"
   transform="matrix(1.0766605,0,0,1.0766605,-8.7507087,-25.227859)" /><polygon
   fill="#007bc0"
   points="278.98,52.299 278.98,48.918 285.895,48.918 285.895,46.361 278.98,46.361 278.98,43.424 286.518,43.424 286.518,40.67 275.73,40.67 275.73,55.053 286.676,55.053 286.676,52.299 "
   id="polygon29-0"
   transform="matrix(1.0766605,0,0,1.0766605,-8.7507087,-25.227859)" /><path
   fill="#007bc0"
   d="m 313.54762,28.064691 c -0.27993,2.15116 -1.5224,3.38609 -3.42809,3.38609 -3.03403,0 -4.115,-2.6249 -4.115,-5.08291 0,-1.22201 0.30039,-5.21319 4.115,-5.21319 1.66775,0 3.08463,1.13372 3.29566,2.64105 l 0.009,0.0485 h 3.38933 l -0.004,-0.0657 c -0.38867,-3.38933 -3.01572,-5.58895 -6.68929,-5.58895 -4.55643,0 -7.61199,3.28705 -7.61199,8.17831 0,4.73731 3.12662,8.04804 7.61199,8.04804 3.79092,0 6.47073,-2.49354 6.81957,-6.3383 l 0.006,-0.0689 h -3.39579 z"
   id="path29-9"
   style="stroke-width:1.07666" /><polygon
   fill="#007bc0"
   points="313.712,40.67 313.712,46.145 308.048,46.145 308.048,40.67 304.792,40.67 304.792,55.053 308.048,55.053 308.048,48.898 313.712,48.898 313.712,55.053 316.96,55.053 316.96,40.67 "
   id="polygon30-7"
   transform="matrix(1.0766605,0,0,1.0766605,-8.7507087,-25.227859)" /><polygon
   fill="#007bc0"
   points="604.441,65.969 604.441,67.498 130.143,67.498 130.143,65.969 "
   id="polygon31-3"
   transform="matrix(1.0766605,0,0,1.0766605,-8.7507087,-25.227859)" /><style
   type="text/css"
   id="style1">
	.st0{fill:#696868;}
	.st1{fill:#E42313;}
</style><g
   id="g31"
   transform="matrix(0.41384543,0,0,0.41384543,693.98161,-22.820509)"><polygon
     class="st0"
     points="97.6,73 49.2,73 49.2,122.2 0,122.2 0,0.2 97.6,0.2 97.6,24.6 49.2,24.6 49.2,49.4 97.6,49.4 "
     id="polygon1" /><rect
     x="108.4"
     y="0"
     class="st1"
     width="48.5"
     height="122.1"
     id="rect1" /><path
     class="st0"
     d="M 272.6,61.1 C 289.1,56.5 298.8,39.3 294.1,22.8 290.3,9.4 278.2,0.2 264.3,0.1 h -93.6 v 122 h 93.6 c 17.2,0 31.1,-13.9 31,-31.1 0,-13.9 -9.3,-26.1 -22.7,-29.9 z M 244.2,98.2 H 218.5 V 73.1 h 25.7 z m 0,-48.9 h -25.7 v -25 h 25.7 z"
     id="path1-4" /><rect
     x="108.5"
     y="133.39999"
     class="st1"
     width="115.3"
     height="34.799999"
     id="rect2-7" /><path
     class="st1"
     d="m 352.4,279.8 c -31.3,0 -56.7,-25.4 -56.7,-56.7 h -38.6 c 0,9.3 1.4,18.6 4.1,27.6 h -22.7 v 29.7 h 37.8 c 31.6,42.1 91.3,50.5 133.4,18.9 24,-18 38,-46.2 38,-76.2 h -38.6 c 0,31.3 -25.4,56.7 -56.7,56.7 z"
     id="path2-83" /><path
     class="st1"
     d="M 41.2,312.9 H 26.5 l -2.3,5.8 h -8.9 l 14.8,-35 h 7.7 l 14.7,35 h -8.8 z m -2.7,-6.9 -4.7,-12 -4.7,12 z"
     id="path3" /><path
     class="st1"
     d="m 54.5,283.7 h 5.2 l 20.8,20.9 -0.2,-20.9 h 8.3 v 35 h -5.1 l -20.8,-21 0.2,21 h -8.3 v -35 z"
     id="path4-5" /><path
     class="st1"
     d="M 124.3,283.7 112,306.4 v 12.2 h -8.3 V 306.4 L 91.4,283.7 h 8.9 l 7.6,15.4 7.6,-15.4 z"
     id="path5" /><path
     class="st1"
     d="m 124.8,314.6 3.1,-5.6 c 2.7,2.1 6,3.3 9.4,3.3 3.8,0 5.8,-1 5.8,-3.1 0,-2.3 -2.6,-3.2 -6.4,-4.3 l -1.8,-0.5 c -6.2,-1.7 -10.6,-4.2 -10.6,-10.1 0,-6.7 5.4,-11.2 13.5,-11.2 4.4,-0.1 8.7,1.4 12.2,4 l -3.6,5.8 c -2.4,-1.9 -5.4,-3 -8.5,-2.9 -3.1,0 -5.1,1.1 -5.1,2.9 0,2.2 2.5,3 5.8,3.9 l 1.8,0.5 c 5.6,1.5 11.2,4.6 11.2,11 0,6.5 -5.6,10.8 -13.9,10.8 -4.7,0.2 -9.3,-1.5 -12.9,-4.5 z"
     id="path6-1" /><path
     class="st1"
     d="m 299.7,193.7 c 11.4,-29.1 44.2,-43.5 73.4,-32.2 14.7,5.8 26.4,17.4 32.2,32.2 h 40.3 c -11.4,-51.4 -62.3,-83.8 -113.7,-72.4 -36.2,8 -64.4,36.3 -72.4,72.4 z"
     id="path7-2" /><path
     class="st1"
     d="M 171.7,201.8 H 140 V 176 H 81.6 v 31 h 26.7 v 33.9 h 63.4 c 10.1,0 18.2,8.2 18.2,18.2 v 2 c 0,10.1 -8.2,18.2 -18.2,18.2 h -5 v 39 h 5 c 31.6,0 57.3,-25.6 57.3,-57.3 v -2 c 0,-31.5 -25.7,-57.1 -57.3,-57.2 z"
     id="path8-0" /></g></svg>
